<svg width="144" height="78" viewBox="0 0 144 78" fill="none" xmlns="http://www.w3.org/2000/svg">
<mask id="mask0_49_44" style="mask-type:alpha" maskUnits="userSpaceOnUse" x="37" y="0" width="70" height="38">
<rect x="37" width="70" height="38" fill="#D9D9D9"/>
</mask>
<g mask="url(#mask0_49_44)">
<circle cx="71" cy="34" r="20.25" fill="#FF0004" stroke="#333333" stroke-width="1.5"/>
<circle cx="66.5" cy="25.5" r="1" fill="#333333" stroke="#333333"/>
<circle cx="75" cy="25.5" r="1" fill="#333333" stroke="#333333"/>
<path d="M71 31.5C72.6073 31.5 74.0395 31.772 75.0508 32.1934C75.5573 32.4045 75.9347 32.6434 76.1777 32.8828C76.4191 33.1206 76.5 33.329 76.5 33.5C76.5 33.671 76.4191 33.8794 76.1777 34.1172C75.9347 34.3566 75.5573 34.5955 75.0508 34.8066C74.0395 35.228 72.6073 35.5 71 35.5C69.3927 35.5 67.9605 35.228 66.9492 34.8066C66.4427 34.5955 66.0653 34.3566 65.8223 34.1172C65.5809 33.8794 65.5 33.671 65.5 33.5C65.5 33.329 65.5809 33.1206 65.8223 32.8828C66.0653 32.6434 66.4427 32.4045 66.9492 32.1934C67.9605 31.772 69.3927 31.5 71 31.5Z" fill="#FEB5D0" stroke="#333333"/>
<circle cx="68.5" cy="33.5" r="0.5" fill="black"/>
<circle cx="73.5" cy="33.5" r="0.5" fill="black"/>
<circle cx="67" cy="30" r="1.5" fill="#98EFFF" stroke="#333333"/>
<circle cx="75" cy="30" r="1.5" fill="#98EFFF" stroke="#333333"/>
<line x1="68" y1="29.5" x2="74" y2="29.5" stroke="#333333"/>
<path d="M54.7201 17.0299L59.2587 13.1805L54.025 11.61L54.7201 17.0299Z" fill="#FEB5D0" stroke="#333333"/>
<path d="M87.3183 17.0299L82.7796 13.1805L88.0133 11.61L87.3183 17.0299Z" fill="#FEB5D0" stroke="#333333"/>
<path d="M48.1855 26.2894L50.5958 20.8482L45.2004 21.7126L48.1855 26.2894Z" fill="#FF0004" stroke="#333333"/>
<path d="M47.5 36.4756L47.5 30.5244L42.917 33.5L47.5 36.4756Z" fill="#FF0004" stroke="#333333"/>
<path d="M94.3135 26.2894L91.9032 20.8482L97.2986 21.7126L94.3135 26.2894Z" fill="#FF0004" stroke="#333333"/>
<path d="M94.999 36.4756L94.999 30.5244L99.582 33.5L94.999 36.4756Z" fill="#FF0004" stroke="#333333"/>
<path d="M67.5244 10.5L73.4756 10.5L70.5 5.91699L67.5244 10.5Z" fill="#FF0004" stroke="#333333"/>
</g>
<mask id="path-18-outside-1_49_44" maskUnits="userSpaceOnUse" x="0" y="34" width="143" height="36" fill="black">
<rect fill="white" y="34" width="143" height="36"/>
<path d="M9.792 64.496C9.888 64.832 9.696 65.024 9.36 65.024C7.488 65.072 5.472 64.976 3.36 64.688C2.88 64.64 2.592 64.064 2.448 63.056C2.064 60.8 2.016 58.496 2.304 56.144C2.304 55.808 2.544 55.568 2.976 55.52C4.512 55.328 6.576 55.424 9.168 55.712C9.6 55.76 9.744 55.952 9.696 56.336C9.456 57.248 9.36 58.304 9.36 59.504C9.36 61.088 9.504 62.72 9.792 64.496ZM26.016 61.04H26.064C26.064 62.336 25.296 63.488 23.808 64.544C22.512 65.408 20.688 66.176 18.384 66.8C18 66.896 17.664 66.8 17.472 66.512C17.04 65.984 16.608 65.264 16.08 64.208C15.936 63.92 16.032 63.68 16.32 63.536C17.328 63.056 17.808 62.48 17.808 61.76C17.808 60.992 17.28 60.608 16.32 60.608C15.552 60.608 14.736 60.656 13.824 60.752C13.392 60.8 13.152 60.656 13.056 60.32C12.576 58.928 12.096 55.856 11.52 51.152C11.52 50.768 11.76 50.576 12.144 50.576C13.728 50.528 16.464 50.768 20.448 51.392C20.88 51.44 20.976 51.68 20.88 52.016C20.448 53.12 20.16 54.56 19.92 56.384C19.92 56.624 20.112 56.768 20.4 56.768C22.8 56.528 24.432 57.2 25.344 58.784C25.824 59.552 26.016 60.32 26.016 61.04ZM36.288 62.432H36.24C36.24 62.768 36.048 62.96 35.664 62.96C34.896 62.96 33.648 62.96 31.968 62.912C30.288 62.864 29.28 62.864 28.896 62.816C28.512 62.768 28.32 62.624 28.368 62.336C28.848 60.944 28.896 58.928 28.512 56.24C28.512 55.856 28.704 55.664 29.04 55.616C30.864 55.424 32.976 55.472 35.424 55.76C35.808 55.808 36.048 56.096 36.144 56.72C36.336 58.256 36.432 60.176 36.288 62.432ZM26.064 46.928H26.112C25.152 48.128 24.144 49.232 23.04 50.288C22.752 50.528 22.416 50.576 22.128 50.336C18.72 47.984 14.64 46.256 9.936 45.248C9.504 45.152 9.264 44.912 9.36 44.528C9.792 42.272 10.656 40.304 11.808 38.528C12.096 38.24 12.432 38.096 12.864 38.096C16.272 38.48 19.488 39.536 22.56 41.168C22.944 41.36 23.136 41.648 23.088 42.032C22.992 42.56 22.944 43.328 22.752 44.384L22.56 45.392C22.464 45.728 22.608 45.92 22.944 45.92L24.096 46.112C24.096 46.112 24.672 46.208 25.776 46.4C26.208 46.448 26.304 46.64 26.064 46.928ZM31.584 37.472H31.632C31.536 40.208 31.248 42.56 30.72 44.576C30.624 45.008 30.384 45.2 29.952 45.2C28.848 45.2 27.216 45.056 25.008 44.768C24.576 44.624 24.384 44.432 24.432 44.096C24.864 41.84 25.056 39.584 25.056 37.28C25.056 36.848 25.296 36.656 25.776 36.656C25.44 36.656 27.168 36.752 30.96 36.848C31.44 36.848 31.68 37.04 31.584 37.472ZM40.032 39.536H39.984C40.176 41.6 39.936 43.76 39.264 45.968C39.12 46.4 38.832 46.64 38.448 46.688C37.152 46.928 35.616 46.784 33.888 46.352C33.456 46.256 33.264 46.016 33.312 45.632C33.6 43.664 33.84 41.6 34.08 39.488C34.08 39.056 34.32 38.864 34.752 38.768C36.048 38.576 37.536 38.576 39.312 38.816C39.744 38.864 39.984 39.104 40.032 39.536ZM67.5293 53.168C67.5293 54.848 67.2893 56.528 66.8093 58.208C66.7133 58.544 66.4253 58.688 65.9933 58.736C62.2493 58.976 58.7933 59.072 55.5773 59.072C52.1693 59.072 48.7133 58.928 45.2573 58.592C44.8253 58.592 44.6813 58.4 44.6813 58.016C44.7293 57.2 44.6333 54.608 44.4893 50.336C44.4413 50.192 44.4893 50.048 44.6333 49.952C44.7293 49.808 44.8733 49.76 45.0653 49.76C52.7933 49.904 59.9453 49.856 66.5693 49.664C67.0013 49.664 67.2413 49.856 67.2893 50.192C67.4813 51.152 67.5293 52.16 67.5293 53.168ZM105.414 43.952C104.742 46.832 104.214 50.816 104.022 55.952C104.022 56.288 103.83 56.432 103.398 56.432C101.142 56.144 99.126 56.144 97.446 56.432C94.806 56.864 93.462 57.968 93.462 59.744C93.462 61.04 94.23 62.096 95.766 62.912C96.438 63.152 97.11 63.344 97.782 63.536C98.79 63.824 99.27 64.208 99.174 64.544C98.934 65.456 98.406 66.368 97.686 67.28C97.446 67.568 97.158 67.664 96.726 67.616C94.806 67.376 92.934 66.608 91.158 65.408C90.246 64.784 89.43 63.968 88.71 63.056C87.75 61.76 87.27 60.512 87.27 59.312C87.27 57.248 88.566 55.376 91.158 53.696C91.158 53.6 91.11 53.504 91.014 53.408C90.726 53.408 85.254 53.744 74.646 54.464C74.214 54.512 73.926 54.32 73.878 53.936C73.542 52.64 73.062 49.424 72.534 44.336C72.534 43.904 72.726 43.664 73.11 43.568C78.15 42.512 83.574 41.984 89.382 41.984C94.758 41.984 99.942 42.368 104.934 43.232C105.318 43.28 105.51 43.568 105.414 43.952ZM140.588 62.864C140.828 63.104 140.78 63.392 140.492 63.632C138.812 65.024 137.18 65.744 135.548 65.744C134.924 65.744 134.3 65.648 133.724 65.408C132.572 64.928 131.66 63.968 130.988 62.528C130.364 61.184 129.356 60.368 127.868 60.08C127.532 60.032 127.196 59.984 126.86 59.984C125.18 59.984 123.596 60.848 122.108 62.576C121.772 63.296 121.292 64.352 120.62 65.792C120.476 66.08 120.236 66.128 119.9 66.032C117.644 65.264 114.764 64.592 111.26 63.92C110.876 63.824 110.684 63.632 110.732 63.296C111.404 57.68 114.188 49.856 118.94 39.824C119.18 39.488 119.468 39.344 119.9 39.392C123.548 39.92 127.292 41.168 131.18 43.088C131.564 43.28 131.66 43.568 131.468 43.904C129.932 46.496 128.156 49.856 126.14 53.936C126.188 54.08 126.284 54.176 126.428 54.272C128.876 54.224 130.796 54.752 132.188 55.904C133.292 56.816 133.868 57.968 134.012 59.408C134.156 60.896 134.635 61.856 135.356 62.336C135.644 62.528 135.98 62.624 136.364 62.624C137.084 62.624 137.804 62.384 138.572 61.856C138.908 61.616 139.196 61.616 139.532 61.856C139.868 62.096 140.252 62.432 140.588 62.864Z"/>
</mask>
<path d="M9.792 64.496C9.888 64.832 9.696 65.024 9.36 65.024C7.488 65.072 5.472 64.976 3.36 64.688C2.88 64.64 2.592 64.064 2.448 63.056C2.064 60.8 2.016 58.496 2.304 56.144C2.304 55.808 2.544 55.568 2.976 55.52C4.512 55.328 6.576 55.424 9.168 55.712C9.6 55.76 9.744 55.952 9.696 56.336C9.456 57.248 9.36 58.304 9.36 59.504C9.36 61.088 9.504 62.72 9.792 64.496ZM26.016 61.04H26.064C26.064 62.336 25.296 63.488 23.808 64.544C22.512 65.408 20.688 66.176 18.384 66.8C18 66.896 17.664 66.8 17.472 66.512C17.04 65.984 16.608 65.264 16.08 64.208C15.936 63.92 16.032 63.68 16.32 63.536C17.328 63.056 17.808 62.48 17.808 61.76C17.808 60.992 17.28 60.608 16.32 60.608C15.552 60.608 14.736 60.656 13.824 60.752C13.392 60.8 13.152 60.656 13.056 60.32C12.576 58.928 12.096 55.856 11.52 51.152C11.52 50.768 11.76 50.576 12.144 50.576C13.728 50.528 16.464 50.768 20.448 51.392C20.88 51.44 20.976 51.68 20.88 52.016C20.448 53.12 20.16 54.56 19.92 56.384C19.92 56.624 20.112 56.768 20.4 56.768C22.8 56.528 24.432 57.2 25.344 58.784C25.824 59.552 26.016 60.32 26.016 61.04ZM36.288 62.432H36.24C36.24 62.768 36.048 62.96 35.664 62.96C34.896 62.96 33.648 62.96 31.968 62.912C30.288 62.864 29.28 62.864 28.896 62.816C28.512 62.768 28.32 62.624 28.368 62.336C28.848 60.944 28.896 58.928 28.512 56.24C28.512 55.856 28.704 55.664 29.04 55.616C30.864 55.424 32.976 55.472 35.424 55.76C35.808 55.808 36.048 56.096 36.144 56.72C36.336 58.256 36.432 60.176 36.288 62.432ZM26.064 46.928H26.112C25.152 48.128 24.144 49.232 23.04 50.288C22.752 50.528 22.416 50.576 22.128 50.336C18.72 47.984 14.64 46.256 9.936 45.248C9.504 45.152 9.264 44.912 9.36 44.528C9.792 42.272 10.656 40.304 11.808 38.528C12.096 38.24 12.432 38.096 12.864 38.096C16.272 38.48 19.488 39.536 22.56 41.168C22.944 41.36 23.136 41.648 23.088 42.032C22.992 42.56 22.944 43.328 22.752 44.384L22.56 45.392C22.464 45.728 22.608 45.92 22.944 45.92L24.096 46.112C24.096 46.112 24.672 46.208 25.776 46.4C26.208 46.448 26.304 46.64 26.064 46.928ZM31.584 37.472H31.632C31.536 40.208 31.248 42.56 30.72 44.576C30.624 45.008 30.384 45.2 29.952 45.2C28.848 45.2 27.216 45.056 25.008 44.768C24.576 44.624 24.384 44.432 24.432 44.096C24.864 41.84 25.056 39.584 25.056 37.28C25.056 36.848 25.296 36.656 25.776 36.656C25.44 36.656 27.168 36.752 30.96 36.848C31.44 36.848 31.68 37.04 31.584 37.472ZM40.032 39.536H39.984C40.176 41.6 39.936 43.76 39.264 45.968C39.12 46.4 38.832 46.64 38.448 46.688C37.152 46.928 35.616 46.784 33.888 46.352C33.456 46.256 33.264 46.016 33.312 45.632C33.6 43.664 33.84 41.6 34.08 39.488C34.08 39.056 34.32 38.864 34.752 38.768C36.048 38.576 37.536 38.576 39.312 38.816C39.744 38.864 39.984 39.104 40.032 39.536ZM67.5293 53.168C67.5293 54.848 67.2893 56.528 66.8093 58.208C66.7133 58.544 66.4253 58.688 65.9933 58.736C62.2493 58.976 58.7933 59.072 55.5773 59.072C52.1693 59.072 48.7133 58.928 45.2573 58.592C44.8253 58.592 44.6813 58.4 44.6813 58.016C44.7293 57.2 44.6333 54.608 44.4893 50.336C44.4413 50.192 44.4893 50.048 44.6333 49.952C44.7293 49.808 44.8733 49.76 45.0653 49.76C52.7933 49.904 59.9453 49.856 66.5693 49.664C67.0013 49.664 67.2413 49.856 67.2893 50.192C67.4813 51.152 67.5293 52.16 67.5293 53.168ZM105.414 43.952C104.742 46.832 104.214 50.816 104.022 55.952C104.022 56.288 103.83 56.432 103.398 56.432C101.142 56.144 99.126 56.144 97.446 56.432C94.806 56.864 93.462 57.968 93.462 59.744C93.462 61.04 94.23 62.096 95.766 62.912C96.438 63.152 97.11 63.344 97.782 63.536C98.79 63.824 99.27 64.208 99.174 64.544C98.934 65.456 98.406 66.368 97.686 67.28C97.446 67.568 97.158 67.664 96.726 67.616C94.806 67.376 92.934 66.608 91.158 65.408C90.246 64.784 89.43 63.968 88.71 63.056C87.75 61.76 87.27 60.512 87.27 59.312C87.27 57.248 88.566 55.376 91.158 53.696C91.158 53.6 91.11 53.504 91.014 53.408C90.726 53.408 85.254 53.744 74.646 54.464C74.214 54.512 73.926 54.32 73.878 53.936C73.542 52.64 73.062 49.424 72.534 44.336C72.534 43.904 72.726 43.664 73.11 43.568C78.15 42.512 83.574 41.984 89.382 41.984C94.758 41.984 99.942 42.368 104.934 43.232C105.318 43.28 105.51 43.568 105.414 43.952ZM140.588 62.864C140.828 63.104 140.78 63.392 140.492 63.632C138.812 65.024 137.18 65.744 135.548 65.744C134.924 65.744 134.3 65.648 133.724 65.408C132.572 64.928 131.66 63.968 130.988 62.528C130.364 61.184 129.356 60.368 127.868 60.08C127.532 60.032 127.196 59.984 126.86 59.984C125.18 59.984 123.596 60.848 122.108 62.576C121.772 63.296 121.292 64.352 120.62 65.792C120.476 66.08 120.236 66.128 119.9 66.032C117.644 65.264 114.764 64.592 111.26 63.92C110.876 63.824 110.684 63.632 110.732 63.296C111.404 57.68 114.188 49.856 118.94 39.824C119.18 39.488 119.468 39.344 119.9 39.392C123.548 39.92 127.292 41.168 131.18 43.088C131.564 43.28 131.66 43.568 131.468 43.904C129.932 46.496 128.156 49.856 126.14 53.936C126.188 54.08 126.284 54.176 126.428 54.272C128.876 54.224 130.796 54.752 132.188 55.904C133.292 56.816 133.868 57.968 134.012 59.408C134.156 60.896 134.635 61.856 135.356 62.336C135.644 62.528 135.98 62.624 136.364 62.624C137.084 62.624 137.804 62.384 138.572 61.856C138.908 61.616 139.196 61.616 139.532 61.856C139.868 62.096 140.252 62.432 140.588 62.864Z" fill="#FEB5D0"/>
<path d="M9.792 64.496L7.81779 64.8161L7.83663 64.9323L7.86895 65.0454L9.792 64.496ZM9.36 65.024V63.024H9.33436L9.30873 63.0247L9.36 65.024ZM3.36 64.688L3.63023 62.7063L3.59469 62.7015L3.55901 62.6979L3.36 64.688ZM2.448 63.056L4.4279 62.7732L4.42412 62.7467L4.41964 62.7204L2.448 63.056ZM2.304 56.144L4.28917 56.3871L4.304 56.266V56.144H2.304ZM2.976 55.52L3.19687 57.5078L3.21048 57.5063L3.22407 57.5046L2.976 55.52ZM9.168 55.712L8.94714 57.6998H8.94714L9.168 55.712ZM9.696 56.336L11.6301 56.845L11.664 56.7162L11.6806 56.5841L9.696 56.336ZM26.016 61.04H24.016V63.04H26.016V61.04ZM26.064 61.04H28.064V59.04H26.064V61.04ZM23.808 64.544L24.9174 66.2081L24.9417 66.1919L24.9655 66.175L23.808 64.544ZM18.384 66.8L18.8691 68.7403L18.888 68.7356L18.9068 68.7305L18.384 66.8ZM17.472 66.512L19.1361 65.4026L19.0818 65.3212L19.0199 65.2455L17.472 66.512ZM16.08 64.208L14.2911 65.1024L14.2911 65.1024L16.08 64.208ZM16.32 63.536L15.4601 61.7303L15.4428 61.7385L15.4256 61.7471L16.32 63.536ZM13.824 60.752L13.6146 58.763L13.6031 58.7642L13.824 60.752ZM13.056 60.32L14.979 59.7706L14.9643 59.7189L14.9467 59.668L13.056 60.32ZM11.52 51.152H9.52V51.274L9.53483 51.3951L11.52 51.152ZM12.144 50.576V52.576H12.1743L12.2046 52.5751L12.144 50.576ZM20.448 51.392L20.1385 53.3679L20.1827 53.3748L20.2271 53.3798L20.448 51.392ZM20.88 52.016L22.7425 52.7448L22.777 52.6566L22.8031 52.5654L20.88 52.016ZM19.92 56.384L17.9371 56.1231L17.92 56.253V56.384H19.92ZM20.4 56.768V58.768H20.4998L20.599 58.7581L20.4 56.768ZM25.344 58.784L23.6108 59.7819L23.6288 59.8133L23.648 59.844L25.344 58.784ZM36.288 62.432V64.432H38.1644L38.2839 62.5594L36.288 62.432ZM36.24 62.432V60.432H34.24V62.432H36.24ZM31.968 62.912L31.9109 64.9112L31.968 62.912ZM28.368 62.336L26.4773 61.684L26.4227 61.8422L26.3952 62.0072L28.368 62.336ZM28.512 56.24H26.512V56.3821L26.5321 56.5228L28.512 56.24ZM29.04 55.616L28.8306 53.627L28.7938 53.6309L28.7572 53.6361L29.04 55.616ZM35.424 55.76L35.6721 53.7754L35.6649 53.7745L35.6577 53.7737L35.424 55.76ZM36.144 56.72L38.1286 56.4719L38.125 56.4439L38.1207 56.4159L36.144 56.72ZM26.064 46.928L24.5276 45.6476L21.7939 48.928H26.064V46.928ZM26.112 46.928L27.6737 48.1774L30.2733 44.928H26.112V46.928ZM23.04 50.288L24.3204 51.8244L24.373 51.7806L24.4224 51.7333L23.04 50.288ZM22.128 50.336L23.4084 48.7996L23.3387 48.7415L23.264 48.6899L22.128 50.336ZM9.936 45.248L9.50215 47.2004L9.50954 47.202L9.51694 47.2036L9.936 45.248ZM9.36 44.528L11.3003 45.0131L11.3138 44.9589L11.3243 44.9041L9.36 44.528ZM11.808 38.528L10.3938 37.1138L10.2448 37.2628L10.1301 37.4396L11.808 38.528ZM12.864 38.096L13.0879 36.1086L12.9763 36.096H12.864V38.096ZM22.56 41.168L21.6217 42.9342L21.6435 42.9458L21.6656 42.9569L22.56 41.168ZM23.088 42.032L25.0557 42.3898L25.0657 42.3352L25.0726 42.2801L23.088 42.032ZM22.752 44.384L24.7167 44.7582L24.7182 44.75L24.7197 44.7418L22.752 44.384ZM22.56 45.392L24.483 45.9414L24.5078 45.8548L24.5247 45.7662L22.56 45.392ZM22.944 45.92L23.2728 43.9472L23.1095 43.92H22.944V45.92ZM24.096 46.112L24.4248 44.1392L24.4248 44.1392L24.096 46.112ZM25.776 46.4L25.4333 48.3704L25.494 48.381L25.5551 48.3878L25.776 46.4ZM31.584 37.472L29.6316 37.0381L29.0908 39.472H31.584V37.472ZM31.632 37.472L33.6308 37.5421L33.7034 35.472H31.632V37.472ZM30.72 44.576L28.7853 44.0693L28.7758 44.1055L28.7676 44.1421L30.72 44.576ZM25.008 44.768L24.3755 46.6654L24.5583 46.7263L24.7493 46.7512L25.008 44.768ZM24.432 44.096L22.4677 43.7199L22.4588 43.7663L22.4521 43.8132L24.432 44.096ZM30.96 36.848L30.9094 38.8474L30.9347 38.848H30.96V36.848ZM40.032 39.536V41.536H42.2665L42.0198 39.3151L40.032 39.536ZM39.984 39.536V37.536H37.7893L37.9926 39.7212L39.984 39.536ZM39.264 45.968L41.1614 46.6004L41.1697 46.5755L41.1773 46.5503L39.264 45.968ZM38.448 46.688L38.1999 44.7034L38.1416 44.7107L38.0838 44.7214L38.448 46.688ZM33.888 46.352L34.3731 44.4117L34.3475 44.4053L34.3219 44.3996L33.888 46.352ZM33.312 45.632L31.3331 45.3424L31.33 45.3631L31.3274 45.3839L33.312 45.632ZM34.08 39.488L36.0672 39.7138L36.08 39.6013V39.488H34.08ZM34.752 38.768L34.4589 36.7896L34.3881 36.8001L34.3181 36.8156L34.752 38.768ZM39.312 38.816L39.0442 40.798L39.0676 40.8012L39.0911 40.8038L39.312 38.816ZM9.792 64.496L7.86895 65.0454C7.793 64.7796 7.73303 64.1457 8.22662 63.5761C8.66634 63.0688 9.1981 63.024 9.36 63.024V65.024V67.024C9.8579 67.024 10.6537 66.8832 11.2494 66.1959C11.899 65.4463 11.887 64.5484 11.715 63.9466L9.792 64.496ZM9.36 65.024L9.30873 63.0247C7.54122 63.07 5.6328 62.9794 3.63023 62.7063L3.36 64.688L3.08977 66.6697C5.3112 66.9726 7.43478 67.074 9.41127 67.0233L9.36 65.024ZM3.36 64.688L3.55901 62.6979C3.83802 62.7258 4.08782 62.8371 4.27572 62.9857C4.44549 63.1199 4.5192 63.2474 4.53525 63.277C4.55189 63.3076 4.53735 63.2895 4.51036 63.1927C4.48443 63.0996 4.45499 62.9628 4.4279 62.7732L2.448 63.056L0.468101 63.3388C0.552847 63.9321 0.703232 64.6028 1.02075 65.187C1.35851 65.8085 2.03365 66.5653 3.16099 66.6781L3.36 64.688ZM2.448 63.056L4.41964 62.7204C4.06933 60.6623 4.02391 58.5534 4.28917 56.3871L2.304 56.144L0.318827 55.9009C0.0080939 58.4386 0.0586684 60.9377 0.476358 63.3916L2.448 63.056ZM2.304 56.144H4.304C4.304 56.4871 4.16501 56.8808 3.85349 57.1759C3.5715 57.4431 3.29021 57.4974 3.19687 57.5078L2.976 55.52L2.75513 53.5322C2.22979 53.5906 1.6125 53.7889 1.10251 54.2721C0.562991 54.7832 0.304 55.4649 0.304 56.144H2.304ZM2.976 55.52L3.22407 57.5046C4.51294 57.3434 6.38006 57.4145 8.94714 57.6998L9.168 55.712L9.38886 53.7242C6.77194 53.4335 4.51106 53.3126 2.72793 53.5354L2.976 55.52ZM9.168 55.712L8.94714 57.6998C8.93262 57.6982 8.82297 57.6858 8.6676 57.6208C8.49977 57.5506 8.27002 57.4146 8.06814 57.1694C7.64147 56.6513 7.70686 56.1246 7.71144 56.0879L9.696 56.336L11.6806 56.5841C11.7331 56.1634 11.7505 55.3487 11.1559 54.6266C10.5807 53.9282 9.80143 53.7701 9.38886 53.7242L9.168 55.712ZM9.696 56.336L7.76185 55.827C7.46173 56.9675 7.36 58.2115 7.36 59.504H9.36H11.36C11.36 58.3965 11.4503 57.5285 11.6301 56.845L9.696 56.336ZM9.36 59.504H7.36C7.36 61.2116 7.51545 62.9517 7.81779 64.8161L9.792 64.496L11.7662 64.1759C11.4925 62.4883 11.36 60.9644 11.36 59.504H9.36ZM26.016 61.04V63.04H26.064V61.04V59.04H26.016V61.04ZM26.064 61.04H24.064C24.064 61.4192 23.8757 62.0435 22.6505 62.913L23.808 64.544L24.9655 66.175C26.7163 64.9325 28.064 63.2528 28.064 61.04H26.064ZM23.808 64.544L22.6986 62.8799C21.6455 63.582 20.045 64.2781 17.8612 64.8695L18.384 66.8L18.9068 68.7305C21.331 68.0739 23.3785 67.234 24.9174 66.2081L23.808 64.544ZM18.384 66.8L17.8989 64.8597C17.9853 64.8381 18.1843 64.8085 18.4442 64.8884C18.7261 64.9752 18.9752 65.1612 19.1361 65.4026L17.472 66.512L15.8079 67.6214C16.5897 68.7941 17.8989 68.9828 18.8691 68.7403L18.384 66.8ZM17.472 66.512L19.0199 65.2455C18.7283 64.889 18.3744 64.3246 17.8689 63.3136L16.08 64.208L14.2911 65.1024C14.8416 66.2034 15.3518 67.079 15.9241 67.7785L17.472 66.512ZM16.08 64.208L17.8689 63.3136C17.9783 63.5325 18.1089 63.9824 17.9147 64.5094C17.7298 65.0113 17.3738 65.2452 17.2144 65.3249L16.32 63.536L15.4256 61.7471C14.9783 61.9708 14.4302 62.3967 14.1613 63.1266C13.8831 63.8816 14.0377 64.5955 14.2911 65.1024L16.08 64.208ZM16.32 63.536L17.1799 65.3417C18.465 64.7297 19.808 63.6269 19.808 61.76H17.808H15.808C15.808 61.7124 15.8169 61.6456 15.8435 61.5743C15.8696 61.5046 15.8999 61.4644 15.9081 61.4546C15.9138 61.4477 15.8928 61.4747 15.819 61.5271C15.7449 61.5798 15.63 61.6494 15.4601 61.7303L16.32 63.536ZM17.808 61.76H19.808C19.808 60.8716 19.4727 59.9425 18.6361 59.3051C17.8936 58.7394 17.0172 58.608 16.32 58.608V60.608V62.608C16.5828 62.608 16.4504 62.6686 16.2119 62.4869C16.0774 62.3844 15.96 62.2405 15.8852 62.0736C15.8146 61.9158 15.808 61.7964 15.808 61.76H17.808ZM16.32 60.608V58.608C15.4682 58.608 14.5809 58.6613 13.6146 58.763L13.824 60.752L14.0334 62.741C14.8911 62.6507 15.6358 62.608 16.32 62.608V60.608ZM13.824 60.752L13.6031 58.7642C13.6135 58.7631 13.9251 58.7257 14.3063 58.9435C14.7418 59.1924 14.922 59.5708 14.979 59.7706L13.056 60.32L11.133 60.8694C11.286 61.4052 11.6342 62.0236 12.3217 62.4165C12.9549 62.7783 13.6025 62.7889 14.0449 62.7398L13.824 60.752ZM13.056 60.32L14.9467 59.668C14.5513 58.5213 14.0911 55.6943 13.5052 50.9089L11.52 51.152L9.53483 51.3951C10.1009 56.0177 10.6007 59.3347 11.1653 60.972L13.056 60.32ZM11.52 51.152H13.52C13.52 51.3926 13.4294 51.848 13.0167 52.2148C12.6421 52.5478 12.2595 52.576 12.144 52.576V50.576V48.576C11.6445 48.576 10.9499 48.7002 10.3593 49.2252C9.73061 49.784 9.52 50.5274 9.52 51.152H11.52ZM12.144 50.576L12.2046 52.5751C13.5924 52.533 16.1747 52.7471 20.1385 53.3679L20.448 51.392L20.7575 49.4161C16.7533 48.7889 13.8636 48.523 12.0834 48.5769L12.144 50.576ZM20.448 51.392L20.2271 53.3798C20.1476 53.3709 19.5488 53.2826 19.1554 52.6389C18.7918 52.0438 18.9435 51.5138 18.957 51.4666L20.88 52.016L22.8031 52.5654C22.9125 52.1822 23.0642 51.3642 22.5686 50.5531C22.0432 49.6934 21.1804 49.4611 20.6689 49.4042L20.448 51.392ZM20.88 52.016L19.0175 51.2872C18.4937 52.6257 18.1817 54.2637 17.9371 56.1231L19.92 56.384L21.9029 56.6449C22.1383 54.8563 22.4023 53.6143 22.7425 52.7448L20.88 52.016ZM19.92 56.384H17.92C17.92 57.0938 18.2313 57.7789 18.8164 58.2386C19.3484 58.6567 19.947 58.768 20.4 58.768V56.768V54.768C20.565 54.768 20.9236 54.8073 21.2876 55.0934C21.7047 55.4211 21.92 55.9142 21.92 56.384H19.92ZM20.4 56.768L20.599 58.7581C21.5844 58.6595 22.2421 58.7671 22.6733 58.9433C23.0683 59.1048 23.3678 59.36 23.6108 59.7819L25.344 58.784L27.0772 57.7861C26.4082 56.6241 25.4357 55.7512 24.1867 55.2407C22.9739 54.7449 21.6156 54.6365 20.201 54.7779L20.4 56.768ZM25.344 58.784L23.648 59.844C23.9279 60.2918 24.016 60.6921 24.016 61.04H26.016H28.016C28.016 59.9479 27.7201 58.8122 27.04 57.724L25.344 58.784ZM36.288 62.432V60.432H36.24V62.432V64.432H36.288V62.432ZM36.24 62.432H34.24C34.24 62.2216 34.3092 61.7557 34.7281 61.3629C35.1262 60.9897 35.5469 60.96 35.664 60.96V62.96V64.96C36.1651 64.96 36.8738 64.8343 37.4639 64.2811C38.0749 63.7083 38.24 62.9784 38.24 62.432H36.24ZM35.664 62.96V60.96C34.9009 60.96 33.6758 60.96 32.0251 60.9128L31.968 62.912L31.9109 64.9112C33.6202 64.96 34.8911 64.96 35.664 64.96V62.96ZM31.968 62.912L32.0251 60.9128C31.1792 60.8886 30.4888 60.8762 29.993 60.8646C29.7399 60.8586 29.5417 60.853 29.3875 60.8463C29.3111 60.8431 29.2523 60.8398 29.2077 60.8367C29.1611 60.8335 29.1428 60.8313 29.1441 60.8314L28.896 62.816L28.6479 64.8006C28.9636 64.84 29.4301 64.8524 29.899 64.8634C30.4232 64.8758 31.0768 64.8874 31.9109 64.9112L31.968 62.912ZM28.896 62.816L29.1441 60.8314C29.1462 60.8317 29.1607 60.8336 29.1852 60.8389C29.2095 60.8442 29.2495 60.8541 29.301 60.872C29.3972 60.9054 29.5824 60.9835 29.7799 61.1546C29.9936 61.3398 30.1818 61.6011 30.2838 61.9247C30.3812 62.2337 30.3684 62.4988 30.3408 62.6648L28.368 62.336L26.3952 62.0072C26.2778 62.7115 26.4536 63.565 27.1601 64.1774C27.703 64.6479 28.3302 64.7608 28.6479 64.8006L28.896 62.816ZM28.368 62.336L30.2587 62.988C30.8966 61.1382 30.889 58.737 30.4919 55.9572L28.512 56.24L26.5321 56.5228C26.903 59.119 26.7994 60.7498 26.4773 61.684L28.368 62.336ZM28.512 56.24H30.512C30.512 56.3764 30.4736 56.7581 30.1497 57.1252C29.8303 57.4873 29.4612 57.5761 29.3228 57.5959L29.04 55.616L28.7572 53.6361C28.2828 53.7039 27.6497 53.9127 27.1503 54.4788C26.6464 55.0499 26.512 55.7196 26.512 56.24H28.512ZM29.04 55.616L29.2494 57.605C30.8853 57.4328 32.8423 57.4701 35.1903 57.7463L35.424 55.76L35.6577 53.7737C33.1097 53.4739 30.8427 53.4152 28.8306 53.627L29.04 55.616ZM35.424 55.76L35.1759 57.7446C35.0493 57.7287 34.8843 57.6859 34.7109 57.5892C34.5353 57.4913 34.4008 57.3657 34.3068 57.2434C34.1383 57.0244 34.1448 56.8784 34.1673 57.0241L36.144 56.72L38.1207 56.4159C38.0472 55.9376 37.8857 55.3356 37.4772 54.8046C37.0125 54.2003 36.3621 53.8617 35.6721 53.7754L35.424 55.76ZM36.144 56.72L34.1594 56.9681C34.3363 58.3826 34.4279 60.1768 34.2921 62.3046L36.288 62.432L38.2839 62.5594C38.4361 60.1752 38.3357 58.1294 38.1286 56.4719L36.144 56.72ZM26.064 46.928V48.928H26.112V46.928V44.928H26.064V46.928ZM26.112 46.928L24.5503 45.6786C23.6445 46.8109 22.6962 47.8492 21.6576 48.8427L23.04 50.288L24.4224 51.7333C25.5918 50.6148 26.6595 49.4451 27.6737 48.1774L26.112 46.928ZM23.04 50.288L21.7596 48.7516C21.8483 48.6777 22.073 48.5254 22.4306 48.4979C22.83 48.4672 23.1809 48.61 23.4084 48.7996L22.128 50.336L20.8476 51.8724C21.3631 52.302 22.0261 52.5408 22.7374 52.4861C23.407 52.4346 23.9437 52.1383 24.3204 51.8244L23.04 50.288ZM22.128 50.336L23.264 48.6899C19.6159 46.1723 15.2863 44.3491 10.3551 43.2924L9.936 45.248L9.51694 47.2036C13.9937 48.1629 17.8241 49.7957 20.992 51.982L22.128 50.336ZM9.936 45.248L10.3699 43.2956C10.3739 43.2965 10.6827 43.3581 10.9739 43.7007C11.1328 43.8876 11.2551 44.1252 11.3092 44.3931C11.3617 44.6531 11.336 44.8704 11.3003 45.0131L9.36 44.528L7.41972 44.0429C7.23809 44.7694 7.34881 45.6121 7.92612 46.2913C8.4213 46.8739 9.06606 47.1035 9.50215 47.2004L9.936 45.248ZM9.36 44.528L11.3243 44.9041C11.702 42.9319 12.4568 41.203 13.4859 39.6164L11.808 38.528L10.1301 37.4396C8.85522 39.405 7.88203 41.6121 7.39569 44.1519L9.36 44.528ZM11.808 38.528L13.2222 39.9422C13.2045 39.9599 13.1453 40.0112 13.0467 40.052C12.9485 40.0927 12.8761 40.096 12.864 40.096V38.096V36.096C11.9026 36.096 11.0576 36.45 10.3938 37.1138L11.808 38.528ZM12.864 38.096L12.6401 40.0834C15.774 40.4365 18.7493 41.4083 21.6217 42.9342L22.56 41.168L23.4983 39.4018C20.2267 37.6637 16.77 36.5235 13.0879 36.1086L12.864 38.096ZM22.56 41.168L21.6656 42.9569C21.629 42.9386 21.4471 42.8393 21.29 42.588C21.1149 42.3078 21.0756 42.0064 21.1034 41.7839L23.088 42.032L25.0726 42.2801C25.1484 41.6736 25.0371 41.0362 24.682 40.468C24.3449 39.9287 23.875 39.5894 23.4544 39.3791L22.56 41.168ZM23.088 42.032L21.1203 41.6742C21.0589 42.012 21.0133 42.4222 20.971 42.7657C20.9247 43.1415 20.8702 43.5537 20.7843 44.0262L22.752 44.384L24.7197 44.7418C24.8258 44.1583 24.8913 43.6585 24.941 43.2543C24.9947 42.8178 25.0211 42.58 25.0557 42.3898L23.088 42.032ZM22.752 44.384L20.7873 44.0098L20.5953 45.0178L22.56 45.392L24.5247 45.7662L24.7167 44.7582L22.752 44.384ZM22.56 45.392L20.637 44.8426C20.5059 45.3012 20.3925 46.1675 20.9772 46.9647C21.572 47.7759 22.4494 47.92 22.944 47.92V45.92V43.92C23.1026 43.92 23.74 43.9681 24.2028 44.5993C24.6555 45.2165 24.5181 45.8188 24.483 45.9414L22.56 45.392ZM22.944 45.92L22.6152 47.8928L23.7672 48.0848L24.096 46.112L24.4248 44.1392L23.2728 43.9472L22.944 45.92ZM24.096 46.112C23.7672 48.0848 23.7672 48.0848 23.7672 48.0848L23.7672 48.0848C23.7672 48.0848 23.7672 48.0848 23.7672 48.0848C23.7672 48.0848 23.7673 48.0848 23.7674 48.0848C23.7676 48.0849 23.768 48.0849 23.7685 48.085C23.7695 48.0852 23.771 48.0854 23.7731 48.0858C23.7773 48.0865 23.7838 48.0876 23.7924 48.089C23.8098 48.0919 23.836 48.0963 23.8711 48.1022C23.9412 48.114 24.0466 48.1318 24.1864 48.1556C24.4661 48.2032 24.8837 48.2748 25.4333 48.3704L25.776 46.4L26.1187 44.4296C25.5643 44.3332 25.1419 44.2607 24.8576 44.2124C24.7154 44.1882 24.6078 44.17 24.5354 44.1578C24.4992 44.1517 24.4718 44.1471 24.4534 44.144C24.4441 44.1424 24.4371 44.1413 24.4324 44.1405C24.43 44.1401 24.4282 44.1398 24.4269 44.1396C24.4263 44.1395 24.4258 44.1394 24.4254 44.1393C24.4253 44.1393 24.4251 44.1393 24.425 44.1392C24.425 44.1392 24.4249 44.1392 24.4249 44.1392C24.4249 44.1392 24.4248 44.1392 24.4248 44.1392C24.4248 44.1392 24.4248 44.1392 24.096 46.112ZM25.776 46.4L25.5551 48.3878C25.545 48.3866 25.4129 48.3733 25.2267 48.2907C25.0426 48.2092 24.6625 47.9937 24.4073 47.5152C24.1299 46.995 24.1667 46.4809 24.2674 46.1494C24.3557 45.8587 24.4931 45.6889 24.5276 45.6476L26.064 46.928L27.6004 48.2084C27.7911 47.9796 28.6156 46.9056 27.9367 45.6328C27.6335 45.0643 27.1634 44.7738 26.8473 44.6338C26.5291 44.4927 26.223 44.4374 25.9969 44.4122L25.776 46.4ZM31.584 37.472V39.472H31.632V37.472V35.472H31.584V37.472ZM31.632 37.472L29.6332 37.4019C29.5404 40.0469 29.2639 42.2419 28.7853 44.0693L30.72 44.576L32.6547 45.0827C33.2322 42.8781 33.5316 40.3691 33.6308 37.5421L31.632 37.472ZM30.72 44.576L28.7676 44.1421C28.7798 44.0872 28.8632 43.7711 29.2036 43.4955C29.5472 43.2173 29.8812 43.2 29.952 43.2V45.2V47.2C30.4548 47.2 31.1248 47.0867 31.7204 46.6045C32.3128 46.1249 32.5642 45.4968 32.6724 45.0099L30.72 44.576ZM29.952 45.2V43.2C28.9842 43.2 27.4589 43.0707 25.2667 42.7848L25.008 44.768L24.7493 46.7512C26.9731 47.0413 28.7118 47.2 29.952 47.2V45.2ZM25.008 44.768L25.6405 42.8706C25.5356 42.8357 25.781 42.8897 26.0348 43.1753C26.182 43.3408 26.3065 43.5559 26.3735 43.8072C26.4379 44.0488 26.4301 44.2516 26.4119 44.3788L24.432 44.096L22.4521 43.8132C22.3586 44.4679 22.4984 45.2176 23.0452 45.8327C23.491 46.3343 24.0484 46.5563 24.3755 46.6654L25.008 44.768ZM24.432 44.096L26.3963 44.4721C26.8545 42.0796 27.056 39.6968 27.056 37.28H25.056H23.056C23.056 39.4712 22.8735 41.6004 22.4677 43.7199L24.432 44.096ZM25.056 37.28H27.056C27.056 37.4325 27.0015 37.9302 26.5313 38.3299C26.3277 38.503 26.1255 38.5843 25.9913 38.6212C25.8636 38.6563 25.7816 38.656 25.776 38.656V36.656V34.656C25.3266 34.656 24.583 34.7362 23.9407 35.2821C23.2305 35.8858 23.056 36.6955 23.056 37.28H25.056ZM25.776 36.656V34.656C25.7563 34.656 25.7268 34.6561 25.6935 34.6571C25.677 34.6576 25.6507 34.6585 25.6192 34.6604C25.5973 34.6618 25.5286 34.6661 25.4424 34.6789C25.4039 34.6847 25.3075 34.6998 25.1881 34.7338C25.1285 34.7508 25.0215 34.784 24.8947 34.8428C24.7938 34.8895 24.5289 35.0197 24.2752 35.2906C23.9817 35.6041 23.627 36.2097 23.7645 37.0005C23.8812 37.6712 24.2893 38.0552 24.4468 38.1879C24.7585 38.4504 25.0762 38.5466 25.0982 38.5541C25.2556 38.607 25.3871 38.628 25.401 38.6304C25.4445 38.6379 25.4799 38.6425 25.4987 38.6449C25.5978 38.6573 25.7221 38.6647 25.7905 38.6689C25.9831 38.6805 26.3007 38.6961 26.7367 38.7143C27.6138 38.7508 29.005 38.7991 30.9094 38.8474L30.96 36.848L31.0106 34.8486C29.123 34.8009 27.7542 34.7532 26.9033 34.7177C26.4753 34.6999 26.1869 34.6855 26.0315 34.6761C25.9259 34.6698 25.9407 34.669 25.9948 34.6758C26.008 34.6774 26.0388 34.6814 26.0786 34.6882C26.089 34.69 26.2178 34.7104 26.3736 34.7628C26.3949 34.77 26.712 34.866 27.0234 35.1283C27.1808 35.2608 27.5888 35.6446 27.7054 36.3153C27.8429 37.1059 27.4883 37.7114 27.1949 38.0248C26.9413 38.2956 26.6766 38.4257 26.5759 38.4723C26.4493 38.531 26.3426 38.5641 26.2834 38.5809C26.1647 38.6147 26.0692 38.6297 26.032 38.6352C25.9482 38.6477 25.8829 38.6518 25.8655 38.6528C25.8384 38.6545 25.8177 38.6552 25.8076 38.6555C25.7962 38.6558 25.7879 38.6559 25.7837 38.6559C25.7792 38.656 25.7765 38.656 25.776 38.656V36.656ZM30.96 36.848V38.848C30.9569 38.848 30.8706 38.8488 30.7348 38.8108C30.5963 38.7721 30.3535 38.6775 30.1148 38.452C29.5243 37.8944 29.5923 37.2153 29.6316 37.0381L31.584 37.472L33.5364 37.9059C33.6717 37.2967 33.6677 36.3056 32.8612 35.544C32.1911 34.9111 31.3675 34.848 30.96 34.848V36.848ZM40.032 39.536V37.536H39.984V39.536V41.536H40.032V39.536ZM39.984 39.536L37.9926 39.7212C38.1581 41.5006 37.9551 43.3996 37.3507 45.3857L39.264 45.968L41.1773 46.5503C41.9169 44.1204 42.1939 41.6994 41.9754 39.3508L39.984 39.536ZM39.264 45.968L37.3666 45.3356C37.3864 45.2763 37.455 45.1181 37.6336 44.9628C37.8199 44.8008 38.0314 44.7245 38.1999 44.7034L38.448 46.688L38.6961 48.6726C39.9331 48.5179 40.8034 47.6743 41.1614 46.6004L39.264 45.968ZM38.448 46.688L38.0838 44.7214C37.1833 44.8882 35.9631 44.8092 34.3731 44.4117L33.888 46.352L33.4029 48.2923C35.269 48.7588 37.1207 48.9678 38.8122 48.6546L38.448 46.688ZM33.888 46.352L34.3219 44.3996C34.3603 44.4082 34.691 44.4872 34.9817 44.8506C35.3055 45.2553 35.3212 45.6832 35.2966 45.8801L33.312 45.632L31.3274 45.3839C31.2548 45.9648 31.3425 46.7047 31.8583 47.3494C32.341 47.9528 32.9837 48.1998 33.4541 48.3044L33.888 46.352ZM33.312 45.632L35.2909 45.9216C35.5842 43.9179 35.8274 41.8244 36.0672 39.7138L34.08 39.488L32.0928 39.2622C31.8526 41.3756 31.6159 43.4101 31.3331 45.3424L33.312 45.632ZM34.08 39.488H36.08C36.08 39.5631 36.0697 39.7095 36.0033 39.8916C35.9334 40.0836 35.8189 40.2655 35.6682 40.4162C35.3904 40.694 35.1242 40.7341 35.1859 40.7204L34.752 38.768L34.3181 36.8156C33.9478 36.8979 33.3456 37.082 32.8398 37.5878C32.2672 38.1604 32.08 38.8727 32.08 39.488H34.08ZM34.752 38.768L35.0451 40.7464C36.119 40.5873 37.4142 40.5777 39.0442 40.798L39.312 38.816L39.5798 36.834C37.6578 36.5743 35.977 36.5647 34.4589 36.7896L34.752 38.768ZM39.312 38.816L39.0911 40.8038C38.9843 40.7919 38.6838 40.7282 38.4018 40.4462C38.1198 40.1642 38.0561 39.8637 38.0442 39.7569L40.032 39.536L42.0198 39.3151C41.9599 38.7763 41.7522 38.1398 41.2302 37.6178C40.7082 37.0958 40.0717 36.8881 39.5329 36.8282L39.312 38.816ZM66.8092 58.208L68.7323 58.7575V58.7574L66.8092 58.208ZM65.9932 58.736L66.1212 60.7319L66.1677 60.7289L66.2141 60.7238L65.9932 58.736ZM45.2573 58.592L45.4508 56.6014L45.3542 56.592H45.2573V58.592ZM44.6813 58.016L42.6847 57.8986L42.6813 57.9572V58.016H44.6813ZM44.4893 50.336L46.4881 50.2686L46.4783 49.9787L46.3866 49.7035L44.4893 50.336ZM44.6333 49.952L45.7427 51.6161L46.0755 51.3942L46.2973 51.0614L44.6333 49.952ZM45.0653 49.76L45.1025 47.7603L45.0839 47.76H45.0653V49.76ZM66.5693 49.664V47.664H66.5403L66.5113 47.6648L66.5693 49.664ZM67.2893 50.192L65.3093 50.4748L65.3172 50.5298L65.3281 50.5842L67.2893 50.192ZM67.5293 53.168H65.5293C65.5293 54.6548 65.3172 56.1501 64.8862 57.6586L66.8092 58.208L68.7323 58.7574C69.2613 56.9059 69.5293 55.0412 69.5293 53.168H67.5293ZM66.8092 58.208L64.8862 57.6586C64.9259 57.5195 64.9981 57.3605 65.116 57.207C65.2336 57.054 65.3671 56.9448 65.4874 56.8716C65.7029 56.7404 65.8507 56.7395 65.7724 56.7482L65.9932 58.736L66.2141 60.7238C66.5678 60.6845 67.0756 60.5876 67.5671 60.2884C68.1251 59.9488 68.543 59.4199 68.7323 58.7575L66.8092 58.208ZM65.9932 58.736L65.8653 56.7401C62.1662 56.9772 58.7529 57.072 55.5773 57.072V59.072V61.072C58.8336 61.072 62.3323 60.9748 66.1212 60.7319L65.9932 58.736ZM55.5773 59.072V57.072C52.2251 57.072 48.8343 56.9303 45.4508 56.6014L45.2573 58.592L45.0637 60.5826C48.5922 60.9257 52.1134 61.072 55.5773 61.072V59.072ZM45.2573 58.592V56.592C45.2839 56.592 45.8085 56.5918 46.2663 57.0801C46.4817 57.3099 46.587 57.553 46.6358 57.7265C46.6809 57.8869 46.6813 57.9983 46.6813 58.016H44.6813H42.6813C42.6813 58.385 42.7361 59.163 43.3482 59.8159C43.986 60.4962 44.7986 60.592 45.2573 60.592V58.592ZM44.6813 58.016L46.6778 58.1334C46.733 57.1952 46.6289 54.4466 46.4881 50.2686L44.4893 50.336L42.4904 50.4034C42.6376 54.7694 42.7255 57.2048 42.6847 57.8986L44.6813 58.016ZM44.4893 50.336L46.3866 49.7035C46.493 50.0227 46.5118 50.4162 46.3688 50.8095C46.2274 51.1985 45.9739 51.462 45.7427 51.6161L44.6333 49.952L43.5238 48.2879C42.681 48.8498 42.2395 49.9114 42.5919 50.9685L44.4893 50.336ZM44.6333 49.952L46.2973 51.0614C46.1279 51.3156 45.8775 51.5252 45.5825 51.6482C45.3243 51.7557 45.12 51.76 45.0653 51.76V49.76V47.76C44.5226 47.76 43.5833 47.9214 42.9692 48.8426L44.6333 49.952ZM45.0653 49.76L45.028 51.7597C52.7873 51.9042 59.9711 51.8561 66.6272 51.6632L66.5693 49.664L66.5113 47.6648C59.9194 47.8559 52.7992 47.9038 45.1025 47.7603L45.0653 49.76ZM66.5693 49.664V51.664C66.5091 51.664 66.2067 51.6521 65.8733 51.402C65.5012 51.123 65.3475 50.7418 65.3093 50.4748L67.2893 50.192L69.2691 49.9092C69.183 49.3062 68.8853 48.661 68.2733 48.202C67.6998 47.7719 67.0614 47.664 66.5693 47.664V49.664ZM67.2893 50.192L65.3281 50.5842C65.4822 51.3547 65.5293 52.2111 65.5293 53.168H67.5293H69.5293C69.5293 52.1089 69.4803 50.9493 69.2504 49.7998L67.2893 50.192ZM105.414 43.952L103.474 43.4669L103.47 43.4822L103.466 43.4975L105.414 43.952ZM104.022 55.952L102.023 55.8773L102.022 55.9146V55.952H104.022ZM103.398 56.432L103.145 58.4159L103.271 58.432H103.398V56.432ZM97.446 56.432L97.769 58.4058L97.7765 58.4045L97.7839 58.4032L97.446 56.432ZM95.766 62.912L94.8277 64.6782L94.9562 64.7465L95.0933 64.7955L95.766 62.912ZM97.782 63.536L98.3314 61.613L97.782 63.536ZM99.174 64.544L97.251 63.9946L97.2452 64.0147L97.2399 64.035L99.174 64.544ZM97.686 67.28L99.2224 68.5604L99.2394 68.54L99.2558 68.5193L97.686 67.28ZM96.726 67.616L96.4779 69.6006L96.4915 69.6023L96.5051 69.6038L96.726 67.616ZM91.158 65.408L90.0286 67.0586L90.0383 67.0652L91.158 65.408ZM88.71 63.056L87.1029 64.2465L87.1212 64.2712L87.1402 64.2953L88.71 63.056ZM91.158 53.696L92.2458 55.3743L93.158 54.7831V53.696H91.158ZM91.014 53.408L92.4282 51.9938L91.8424 51.408H91.014V53.408ZM74.646 54.464L74.5106 52.4686L74.4678 52.4715L74.4251 52.4762L74.646 54.464ZM73.878 53.936L75.8626 53.6879L75.8465 53.5594L75.814 53.4341L73.878 53.936ZM72.534 44.336H70.534V44.4395L70.5447 44.5424L72.534 44.336ZM73.11 43.568L72.6999 41.6105L72.6622 41.6184L72.6249 41.6277L73.11 43.568ZM104.934 43.232L104.593 45.2027L104.639 45.2107L104.686 45.2166L104.934 43.232ZM105.414 43.952L103.466 43.4975C102.757 46.5355 102.219 50.6528 102.023 55.8773L104.022 55.952L106.021 56.0267C106.209 50.9792 106.727 47.1285 107.362 44.4065L105.414 43.952ZM104.022 55.952H102.022C102.022 55.8532 102.035 55.6545 102.133 55.4142C102.239 55.1541 102.418 54.9125 102.657 54.7293C102.881 54.5577 103.093 54.4875 103.215 54.4586C103.276 54.4439 103.324 54.4376 103.353 54.4348C103.381 54.432 103.397 54.432 103.398 54.432V56.432V58.432C103.757 58.432 104.457 58.3881 105.087 57.9067C105.842 57.3296 106.022 56.513 106.022 55.952H104.022ZM103.398 56.432L103.651 54.4481C101.26 54.1428 99.0362 54.1302 97.1081 54.4608L97.446 56.432L97.7839 58.4032C99.2158 58.1578 101.024 58.1452 103.145 58.4159L103.398 56.432ZM97.446 56.432L97.123 54.4583C95.6295 54.7026 94.2385 55.1732 93.1877 56.0442C92.0533 56.9844 91.462 58.2737 91.462 59.744H93.462H95.462C95.462 59.4383 95.5427 59.2876 95.7403 59.1238C96.0215 58.8908 96.6225 58.5933 97.769 58.4058L97.446 56.432ZM93.462 59.744H91.462C91.462 62.0321 92.8962 63.6521 94.8277 64.6782L95.766 62.912L96.7043 61.1458C95.5638 60.5399 95.462 60.0479 95.462 59.744H93.462ZM95.766 62.912L95.0933 64.7955C95.8362 65.0608 96.57 65.2697 97.2326 65.459L97.782 63.536L98.3314 61.613C97.65 61.4183 97.0399 61.2432 96.4387 61.0285L95.766 62.912ZM97.782 63.536L97.2326 65.459C97.6305 65.5728 97.7412 65.6586 97.6986 65.6269C97.6754 65.6097 97.5162 65.4904 97.3778 65.2335C97.2174 64.9356 97.1104 64.4866 97.251 63.9946L99.174 64.544L101.097 65.0934C101.504 63.6692 100.501 62.7261 100.085 62.4171C99.5748 62.0374 98.9415 61.7873 98.3314 61.613L97.782 63.536ZM99.174 64.544L97.2399 64.035C97.096 64.5815 96.744 65.2456 96.1162 66.0407L97.686 67.28L99.2558 68.5193C100.068 67.4904 100.772 66.3305 101.108 65.053L99.174 64.544ZM97.686 67.28L96.1496 65.9996C96.2244 65.9099 96.3832 65.7673 96.6238 65.684C96.8377 65.61 96.9783 65.6317 96.9469 65.6282L96.726 67.616L96.5051 69.6038C96.9057 69.6483 97.4063 69.646 97.9322 69.464C98.4848 69.2727 98.9076 68.9381 99.2224 68.5604L97.686 67.28ZM96.726 67.616L96.9741 65.6314C95.4215 65.4374 93.8433 64.8087 92.2777 63.7508L91.158 65.408L90.0383 67.0652C92.0247 68.4073 94.1905 69.3146 96.4779 69.6006L96.726 67.616ZM91.158 65.408L92.2874 63.7574C91.5821 63.2749 90.9087 62.6133 90.2798 61.8167L88.71 63.056L87.1402 64.2953C87.9513 65.3227 88.9099 66.2931 90.0286 67.0586L91.158 65.408ZM88.71 63.056L90.3171 61.8655C89.5255 60.7968 89.27 59.9574 89.27 59.312H87.27H85.27C85.27 61.0666 85.9745 62.7232 87.1029 64.2465L88.71 63.056ZM87.27 59.312H89.27C89.27 58.2197 89.9218 56.8806 92.2458 55.3743L91.158 53.696L90.0702 52.0177C87.2102 53.8714 85.27 56.2763 85.27 59.312H87.27ZM91.158 53.696H93.158C93.158 52.8825 92.7422 52.3078 92.4282 51.9938L91.014 53.408L89.5998 54.8222C89.4778 54.7002 89.158 54.3175 89.158 53.696H91.158ZM91.014 53.408V51.408C90.6363 51.408 85.0496 51.7533 74.5106 52.4686L74.646 54.464L74.7814 56.4594C80.0834 56.0995 84.1006 55.8357 86.8272 55.6619C88.1908 55.575 89.2301 55.5107 89.9454 55.4682C90.7139 55.4226 91.0196 55.408 91.014 55.408V53.408ZM74.646 54.464L74.4251 52.4762C74.5287 52.4647 74.8697 52.4539 75.2447 52.7095C75.6604 52.993 75.8272 53.405 75.8626 53.6879L73.878 53.936L71.8934 54.1841C71.9768 54.851 72.3116 55.551 72.9913 56.0145C73.6303 56.4501 74.3313 56.5113 74.8669 56.4518L74.646 54.464ZM73.878 53.936L75.814 53.4341C75.5219 52.3075 75.0538 49.2411 74.5233 44.1296L72.534 44.336L70.5447 44.5424C71.0702 49.6069 71.5621 52.9725 71.942 54.4379L73.878 53.936ZM72.534 44.336H74.534C74.534 44.4082 74.5166 44.7129 74.2689 45.0381C74.0152 45.371 73.7076 45.4801 73.5951 45.5083L73.11 43.568L72.6249 41.6277C72.1284 41.7519 71.5328 42.029 71.0871 42.6139C70.6474 43.191 70.534 43.8318 70.534 44.336H72.534ZM73.11 43.568L73.5201 45.5255C78.4094 44.5011 83.6946 43.984 89.382 43.984V41.984V39.984C83.4534 39.984 77.8906 40.5229 72.6999 41.6105L73.11 43.568ZM89.382 41.984V43.984C94.6636 43.984 99.7316 44.3613 104.593 45.2027L104.934 43.232L105.275 41.2613C100.152 40.3747 94.8524 39.984 89.382 39.984V41.984ZM104.934 43.232L104.686 45.2166C104.423 45.1837 103.991 45.0267 103.69 44.5754C103.394 44.1316 103.418 43.6917 103.474 43.4669L105.414 43.952L107.354 44.4371C107.506 43.8283 107.482 43.0524 107.018 42.3566C106.549 41.6533 105.829 41.3283 105.182 41.2474L104.934 43.232ZM140.587 62.864L139.009 64.0919L139.085 64.1902L139.173 64.2782L140.587 62.864ZM140.492 63.632L141.768 65.1721L141.772 65.1684L140.492 63.632ZM133.723 65.408L132.954 67.2542L133.723 65.408ZM130.988 62.528L129.173 63.3702L129.175 63.3738L130.988 62.528ZM127.868 60.08L128.248 58.1164L128.199 58.1071L128.15 58.1001L127.868 60.08ZM122.107 62.576L120.592 61.271L120.412 61.4801L120.295 61.7302L122.107 62.576ZM120.619 65.792L122.408 66.6864L122.42 66.6623L122.432 66.6378L120.619 65.792ZM119.899 66.032L119.255 67.9253L119.302 67.9414L119.35 67.955L119.899 66.032ZM111.259 63.92L110.774 65.8603L110.828 65.8737L110.883 65.8842L111.259 63.92ZM110.731 63.296L112.711 63.5788L112.715 63.5563L112.717 63.5336L110.731 63.296ZM118.939 39.824L117.312 38.6615L117.208 38.8067L117.132 38.9678L118.939 39.824ZM119.899 39.392L120.186 37.4126L120.153 37.4079L120.12 37.4042L119.899 39.392ZM131.18 43.088L132.074 41.2991L132.065 41.2947L131.18 43.088ZM131.467 43.904L133.188 44.9236L133.196 44.91L133.204 44.8963L131.467 43.904ZM126.14 53.936L124.346 53.05L123.982 53.7878L124.242 54.5685L126.14 53.936ZM126.427 54.272L125.318 55.9361L125.84 56.2839L126.467 56.2716L126.427 54.272ZM132.188 55.904L130.912 57.4448L130.914 57.4459L132.188 55.904ZM134.012 59.408L136.002 59.2154L136.002 59.209L134.012 59.408ZM135.355 62.336L136.465 60.6719V60.6719L135.355 62.336ZM138.572 61.856L139.705 63.5041L139.719 63.4939L139.734 63.4835L138.572 61.856ZM139.532 61.856L140.694 60.2285L140.694 60.2285L139.532 61.856ZM140.587 62.864L139.173 64.2782C138.942 64.0471 138.673 63.5822 138.756 62.9778C138.828 62.4505 139.122 62.1702 139.211 62.0956L140.492 63.632L141.772 65.1684C142.149 64.8538 142.611 64.3095 142.719 63.5182C142.838 62.6498 142.473 61.9209 142.002 61.4498L140.587 62.864ZM140.492 63.632L139.215 62.092C137.751 63.3056 136.556 63.744 135.548 63.744V65.744V67.744C137.803 67.744 139.872 66.7424 141.768 65.172L140.492 63.632ZM135.548 65.744V63.744C135.122 63.744 134.771 63.6779 134.493 63.5618L133.723 65.408L132.954 67.2542C133.828 67.6181 134.725 67.744 135.548 67.744V65.744ZM133.723 65.408L134.493 63.5618C133.916 63.3217 133.321 62.7982 132.8 61.6822L130.988 62.528L129.175 63.3738C129.998 65.1378 131.227 66.5343 132.954 67.2542L133.723 65.408ZM130.988 62.528L132.802 61.6858C131.914 59.7742 130.382 58.5295 128.248 58.1164L127.868 60.08L127.487 62.0436C128.329 62.2065 128.813 62.5938 129.173 63.3702L130.988 62.528ZM127.868 60.08L128.15 58.1001C127.839 58.0556 127.362 57.984 126.86 57.984V59.984V61.984C127.029 61.984 127.224 62.0084 127.585 62.0599L127.868 60.08ZM126.86 59.984V57.984C124.409 57.984 122.317 59.2676 120.592 61.271L122.107 62.576L123.623 63.881C124.874 62.4284 125.95 61.984 126.86 61.984V59.984ZM122.107 62.576L120.295 61.7302C120.124 62.0961 119.917 62.5469 119.673 63.0772C119.427 63.6101 119.141 64.2306 118.807 64.9462L120.619 65.792L122.432 66.6378C122.77 65.9134 123.06 65.2859 123.306 64.7508C123.554 64.2131 123.755 63.7759 123.92 63.4218L122.107 62.576ZM120.619 65.792L118.831 64.8976C118.955 64.6484 119.25 64.2923 119.757 64.1403C119.968 64.0769 120.146 64.0724 120.258 64.0794C120.367 64.0862 120.436 64.1052 120.449 64.109L119.899 66.032L119.35 67.955C119.68 68.0493 120.258 68.1661 120.906 67.9717C121.653 67.7477 122.14 67.2236 122.408 66.6864L120.619 65.792ZM119.899 66.032L120.544 64.1387C118.154 63.3251 115.165 62.6326 111.636 61.9558L111.259 63.92L110.883 65.8842C114.362 66.5514 117.133 67.2029 119.255 67.9253L119.899 66.032ZM111.259 63.92L111.745 61.9797C111.757 61.9828 111.826 62.0006 111.925 62.0518C112.026 62.1041 112.181 62.2027 112.333 62.3748C112.493 62.5553 112.613 62.7775 112.676 63.0213C112.737 63.2558 112.729 63.4524 112.711 63.5788L110.731 63.296L108.752 63.0132C108.661 63.6471 108.786 64.4005 109.334 65.0212C109.807 65.5572 110.401 65.7669 110.774 65.8603L111.259 63.92ZM110.731 63.296L112.717 63.5336C113.349 58.2583 116.01 50.6805 120.747 40.6802L118.939 39.824L117.132 38.9678C112.365 49.0315 109.458 57.1017 108.746 63.0584L110.731 63.296ZM118.939 39.824L120.567 40.9865C120.545 41.017 120.427 41.1684 120.186 41.2799C119.938 41.394 119.736 41.3862 119.679 41.3798L119.899 39.392L120.12 37.4042C119.631 37.3498 119.069 37.39 118.509 37.6481C117.956 37.9036 117.574 38.295 117.312 38.6615L118.939 39.824ZM119.899 39.392L119.613 41.3714C123.011 41.8631 126.552 43.0334 130.294 44.8813L131.18 43.088L132.065 41.2947C128.031 39.3026 124.084 37.9769 120.186 37.4126L119.899 39.392ZM131.18 43.088L130.285 44.8769C130.209 44.8386 129.835 44.629 129.651 44.099C129.453 43.5315 129.636 43.0776 129.731 42.9117L131.467 43.904L133.204 44.8963C133.491 44.3944 133.722 43.6285 133.428 42.785C133.148 41.979 132.534 41.5294 132.074 41.2991L131.18 43.088ZM131.467 43.904L129.747 42.8844C128.174 45.5386 126.373 48.9493 124.346 53.05L126.14 53.936L127.933 54.822C129.938 50.7627 131.689 47.4534 133.188 44.9236L131.467 43.904ZM126.14 53.936L124.242 54.5685C124.49 55.3116 124.997 55.7222 125.318 55.9361L126.427 54.272L127.537 52.6079C127.542 52.6116 127.635 52.6721 127.742 52.7933C127.864 52.9306 127.971 53.1048 128.037 53.3035L126.14 53.936ZM126.427 54.272L126.467 56.2716C128.626 56.2293 130.013 56.7007 130.912 57.4448L132.188 55.904L133.463 54.3632C131.578 52.8033 129.125 52.2187 126.388 52.2724L126.427 54.272ZM132.188 55.904L130.914 57.4459C131.581 57.9968 131.926 58.6505 132.021 59.607L134.012 59.408L136.002 59.209C135.809 57.2855 135.002 55.6352 133.461 54.3621L132.188 55.904ZM134.012 59.408L132.021 59.6006C132.191 61.3589 132.805 63.0394 134.246 64.0001L135.355 62.336L136.465 60.6719C136.459 60.6682 136.379 60.616 136.278 60.4006C136.172 60.1745 136.059 59.7983 136.002 59.2154L134.012 59.408ZM135.355 62.336L134.246 64.0001C134.898 64.4348 135.63 64.624 136.363 64.624V62.624V60.624C136.339 60.624 136.346 60.6211 136.373 60.629C136.402 60.6372 136.435 60.652 136.465 60.6719L135.355 62.336ZM136.363 62.624V64.624C137.569 64.624 138.677 64.2108 139.705 63.5041L138.572 61.856L137.438 60.2079C136.93 60.5572 136.598 60.624 136.363 60.624V62.624ZM138.572 61.856L139.734 63.4835C139.687 63.5167 139.443 63.676 139.051 63.676C138.66 63.676 138.416 63.5167 138.369 63.4835L139.532 61.856L140.694 60.2285C140.311 59.9553 139.755 59.676 139.051 59.676C138.348 59.676 137.792 59.9553 137.409 60.2285L138.572 61.856ZM139.532 61.856L138.369 63.4835C138.58 63.6342 138.814 63.841 139.009 64.0919L140.587 62.864L142.166 61.6361C141.689 61.023 141.155 60.5578 140.694 60.2285L139.532 61.856Z" fill="#333333" mask="url(#path-18-outside-1_49_44)"/>
<line opacity="0.8" x1="25.0559" y1="35.6544" x2="30.5484" y2="35.9422" stroke="black" stroke-width="1.98"/>
</svg>
